<?xml version="1.0" encoding="utf-8"?>
<!-- Generator: Adobe Illustrator 25.2.1, SVG Export Plug-In . SVG Version: 6.00 Build 0)  -->
<svg version="1.1" id="图层_1" xmlns:v="https://vecta.io/nano"
	 xmlns="http://www.w3.org/2000/svg" xmlns:xlink="http://www.w3.org/1999/xlink" x="0px" y="0px" viewBox="0 0 128 128"
	 style="enable-background:new 0 0 128 128;" xml:space="preserve">
<style type="text/css">
	.st0{fill:#3EA3FF;}
	.st1{fill:#FFFFFF;}
</style>
<path class="st0" d="M37.8,9.4c-55.3,29-41.5,108,20.1,115.6c32.6,4,62.9-20.5,66.9-54.4C130.6,24.1,78.8-12.4,37.8,9.4z M57,95.5
	c-3.2,0-5.6,0.6-7.3,1.6c-0.4,0.3-0.9,0.6-1.2,0.9c-0.4,0.3-0.6,0.6-0.9,0.9c-0.9,1.2-1.2,2.6-1,4.1c0,0.3,0.1,0.5,0.2,0.8
	c0.3,1,0.8,1.9,1.4,2.6c0.3,0.5,0.7,1,1.2,1.4c2.3,2.3,6,4.1,10.9,4.7c0.1,0,0.2,0,0.3,0c-0.8,0-1.6-0.1-2.3-0.2
	c-1.6-0.1-3.1-0.4-4.6-0.8c-1.1-0.3-2.3-0.6-3.4-0.9c-0.1,0-0.2,0-0.4-0.1c-2.3-0.7-4.5-1.6-6.7-2.7c-2.2-1-4.3-2.3-6.3-3.7
	c-1-0.7-1.9-1.4-2.8-2.1c-1.9-1.6-3.7-3.2-5.4-5L27,95.4c-0.5-0.6-1-1.2-1.4-1.7c-0.4-0.6-0.9-1.2-1.3-1.8c-0.3-0.4-0.6-0.8-0.8-1.2
	c-0.4-0.6-0.8-1.3-1.2-2l-0.9-1.6c-3.8-7.1-5.8-15.1-5.8-23.2c0-1.9,0.1-3.8,0.4-5.6c0.5,4.6,6.3,5.7,19.3,7
	c22.8,2.7,33.5,9.8,33.5,21.9C68.6,93.3,65.4,95.5,57,95.5z M112.5,71.8c0.8-5.6-3.7-6.1-14.5-4.4c-12.5,1.8-16.1,0.4-20.1-7.1
	c-3.1-4.9-9.4-9.4-13.8-9.4c-11.6,0-11.6-11.6,0-17.8C69,30.4,73,25.5,73,21.9c0-5-3.4-7.1-8.6-7.1c26.9,0.1,48.8,22,48.8,49
	C113.2,66.5,113,69.2,112.5,71.8z"/>
<g>
	<g>
		<path id="B" class="st1" d="M112.5,71.8c0.8-5.6-3.7-6.1-14.5-4.4c-12.5,1.8-16.1,0.4-20.1-7.1c-3.1-4.9-9.4-9.4-13.8-9.4
			c-11.6,0-11.6-11.6,0-17.8C69,30.4,73,25.5,73,21.9c0-5-3.4-7.1-8.6-7.1c26.9,0.1,48.8,22,48.8,49C113.2,66.5,113,69.2,112.5,71.8
			z"/>
	</g>
	<path class="st1" d="M47.5,98.9c-0.9,1.2-1.2,2.6-1,4.1c0,0.3,0.1,0.5,0.2,0.8c0.3,1,0.8,1.9,1.4,2.6c0.3,0.5,0.7,0.9,1.2,1.4
		c2.3,2.3,6,4.1,10.9,4.7l-2.1-0.2l-4.6-0.8l-3.4-0.9c-0.1,0-0.2,0-0.4-0.1c-2.3-0.7-4.5-1.6-6.7-2.7c-2.2-1.1-4.3-2.3-6.3-3.7
		l-2.8-2.1c-1.9-1.6-3.7-3.2-5.4-5L27,95.4l-1.4-1.7l-1.3-1.8l-0.8-1.2c-0.4-0.6-0.8-1.3-1.2-2l-0.9-1.6c-3.8-7.1-5.8-15.1-5.8-23.2
		c0-1.9,0.1-3.8,0.4-5.6c0.5,4.6,6.3,5.7,19.3,7c22.8,2.7,33.5,9.8,33.5,21.9c0,6.2-3.1,8.5-11.6,8.5c-3.2,0-5.6,0.6-7.3,1.6
		c-0.4,0.3-0.9,0.6-1.2,0.9C48,98.3,47.8,98.6,47.5,98.9z"/>
	<path class="st1" d="M47.5,98.9c-0.9,1.2-1.2,2.6-1,4.1C46.2,101.6,46.6,100.1,47.5,98.9z"/>
	<g>
		<path id="B_1_" class="st1" d="M112.5,71.8c0.8-5.6-3.7-6.1-14.5-4.4c-12.5,1.8-16.1,0.4-20.1-7.1c-3.1-4.9-9.4-9.4-13.8-9.4
			c-11.6,0-11.6-11.6,0-17.8C69,30.4,73,25.5,73,21.9c0-5-3.4-7.1-8.6-7.1c26.9,0.1,48.8,22,48.8,49C113.2,66.5,113,69.2,112.5,71.8
			z"/>
	</g>
</g>
</svg>
